/* XPM */
static char *e808b5857ea846ba829c76bc537ca7b3KhpsMvIAopzY5WP3[] = {
/* columns rows colors chars-per-pixel */
"64 64 101 2 ",
"   c None",
".  c #5F3F37",
"X  c #613F37",
"o  c #653E38",
"O  c #6B3C38",
"+  c #7F373A",
"@  c #733B39",
"#  c #7B3839",
"$  c #5B4037",
"%  c #84363A",
"&  c #8B353B",
"*  c #94323B",
"=  c #9A313C",
"-  c #A32E3D",
";  c #AC2C3D",
":  c #B42A3E",
">  c #BC283F",
",  c #C0273F",
"<  c #DD1F41",
"1  c #E31E42",
"2  c #EB1C43",
"3  c #FE1744",
"4  c #F41A43",
"5  c #FC1845",
"6  c #C62540",
"7  c #CD2440",
"8  c #D42241",
"9  c #DB2041",
"0  c #FC254A",
"q  c #FC2C4D",
"w  c #FB324F",
"e  c #FA3651",
"r  c #FA3B52",
"t  c #F94356",
"y  c #F84758",
"u  c #F74F5B",
"i  c #F84C5A",
"p  c #F7535C",
"a  c #F6595F",
"s  c #F56564",
"d  c #F46A66",
"f  c #F37269",
"g  c #F27D6D",
"h  c #548B2F",
"j  c #568C31",
"k  c #598E33",
"l  c #5E9135",
"z  c #63953A",
"x  c #67983D",
"c  c #69983E",
"v  c #6C9B40",
"b  c #719E44",
"n  c #74A046",
"m  c #77A248",
"M  c #7BA54B",
"N  c #80A84F",
"B  c #84AB53",
"V  c #88AE55",
"C  c #8BB057",
"Z  c #8EB25A",
"A  c #93B55E",
"S  c #97B860",
"D  c #9BBB64",
"F  c #A2BF69",
"G  c #F2816F",
"H  c #F18370",
"J  c #F18B73",
"K  c #EF9577",
"L  c #EF9B7A",
"P  c #F09276",
"I  c #EEA47D",
"U  c #EDA97F",
"Y  c #A5C16B",
"T  c #A9C46E",
"R  c #AFC873",
"E  c #B4CB76",
"W  c #B7CE79",
"Q  c #BBD17C",
"!  c #C0D47F",
"~  c #EDAB80",
"^  c #EBB584",
"/  c #EBBB87",
"(  c #EBBF88",
")  c #C4D682",
"_  c #C6D884",
"`  c #C8D985",
"'  c #CDDD89",
"]  c #D0DF8B",
"[  c #EAC48A",
"{  c #E9CB8D",
"}  c #E8D08F",
"|  c #E8D491",
" . c #E7DC94",
".. c #D3E18E",
"X. c #D7E491",
"o. c #DBE693",
"O. c #DEE896",
"+. c #E6E397",
"@. c #E6E698",
"#. c #E5ED9B",
"$. c #E5F09C",
/* pixels */
"                                                                                                                                ",
"                                                                                                                                ",
"                                                                                                                                ",
"                                                                                                      k                         ",
"                                                                                                    h h j                       ",
"                                                                                                  W z h h j                     ",
"                                                                                                #.#.E z h h j                   ",
"                                                                                              #.#.#.#.T k h h k                 ",
"                                                                                            U #.#.#.#.#.A h h h                 ",
"                                                                                          3 q ^ #.#.#.#.o.m h h k               ",
"                                                                                        3 3 3 r [ #.#.#.#.) z h h               ",
"                                                                                      3 3 3 3 3 u  .#.#.#.#.D h h j             ",
"                                                                                    3 3 3 3 3 3 3 g #.#.#.#...v h h k           ",
"                                                                                5 3 3 3 3 5 3 3 3 0 ^ #.#.#.#.Y h h j           ",
"                                                                              5 5 3 3 3 3 3 3 5 3 3 a +.#.#.#...c h j           ",
"                                                                            3 3 3 3 3 5 3 3 3 3 3 3 5 U $.#.#.#.S h h j         ",
"                                                                          5 3 3 3 3 3 3 3 3 3 3 3 3 3 a @.#.#.#.) l h j         ",
"                                                                        5 5 3 3 3 3 3 3 3 3 3 3 5 3 3 0 ( $.#.#.O.n h h         ",
"                                                                      5 3 3 3 3 3 3 3 3 3 3 3 3 3 3 3 3 H #.#.#.#.D h h j       ",
"                                                                    5 3 3 3 3 3 3 3 4 9 1 3 3 3 3 3 3 3 y +.#.#.$.Q j j j       ",
"                                                                  5 5 5 3 3 3 3 3 7 % o @ 6 3 3 3 3 3 3 0 { #.#.#.] z h j       ",
"                                                                5 5 3 3 3 3 3 2 - o $ $ $ @ 2 3 3 3 3 3 3 I $.#.#.O.b h j       ",
"                                                              5 5 3 3 3 3 3 2 & $ $ $ $ $ O 2 3 3 3 3 3 3 H #.#.#.#.B h h       ",
"                                                            5 3 3 3 3 3 3 3 4 7 - + o $ X ; 5 3 3 3 3 3 3 s #.#.#.#.A h h k     ",
"                                                          5 3 3 3 3 3 3 3 3 5 3 3 4 9 6 8 3 3 3 3 3 3 3 3 a #.#.#.#.D h h k     ",
"                                                        5 3 3 3 3 3 3 3 3 3 3 3 3 3 3 3 3 3 3 3 3 3 3 3 3 u +.#.#.#.F h h k     ",
"                                                      3 3 5 3 3 3 3 3 3 3 3 3 3 3 3 3 3 3 3 3 3 3 3 3 3 3 t +.#.#.#.T h j k     ",
"                                                    3 3 3 3 3 3 3 3 5 3 5 3 3 3 3 3 3 3 3 3 3 3 3 3 3 3 3 u +.#.#.#.Y h h k     ",
"                                                  3 3 3 3 3 3 3 3 3 3 3 3 3 3 3 2 7 ; = : 4 3 3 3 3 3 3 3 a @.#.#.#.S h h j     ",
"                                                3 3 3 3 3 3 3 3 5 3 3 3 3 3 9 * @ . . $ . - 3 3 3 3 3 3 3 d #.#.#.#.Z h j j     ",
"                                              3 3 3 3 3 3 3 3 3 3 3 3 3 3 3 2 = X . $ . $ @ 2 3 3 3 3 3 3 J #.#.#.#.B h j       ",
"                                            3 3 3 3 3 3 3 3 3 3 3 3 3 5 3 3 5 5 > O $ $ $ * 3 3 3 3 3 3 3 ~ $.#.#.o.b h j       ",
"                                          3 3 3 3 3 5 3 3 3 3 3 3 3 3 3 3 3 3 3 3 1 - + = 1 3 3 3 3 3 3 q { $.#.#.' l j j       ",
"                                        5 3 3 3 3 3 3 3 3 3 3 3 3 3 3 3 3 3 3 3 3 3 3 4 3 3 3 3 3 5 3 3 p @.#.#.#.W j h j       ",
"                                    5 5 3 3 3 3 3 3 3 3 3 5 3 3 3 3 3 5 2 5 3 3 3 3 3 3 3 3 3 3 3 3 3 3 J $.#.#.#.S h h j       ",
"                                  5 3 3 3 3 3 3 3 5 3 3 3 3 3 3 3 5 3 2 + % - 8 4 5 3 3 3 3 3 3 3 3 3 q [ #.#.#.o.n h j         ",
"                                5 3 3 5 5 3 3 5 3 3 3 3 3 3 3 3 3 3 3 5 % $ $ $ & 1 3 3 3 3 3 3 3 3 3 s @.#.#.#.Q k j j         ",
"                              5 3 3 3 3 3 3 2 1 3 3 5 3 3 3 6 2 3 3 3 3 : $ $ $ $ : 3 3 3 3 3 3 3 3 0 ^ #.#.#.#.A h h j         ",
"                            5 5 5 3 3 3 3 4 = = 5 3 3 3 3 2 @ = 4 3 3 3 9 O $ o $ ; 3 3 3 3 3 3 3 3 s #.#.#.#.' z h j           ",
"                          5 3 3 3 3 3 3 3 ; $ O 1 3 3 3 3 6 X X : 3 3 3 3 - o $ + 1 3 3 3 3 3 3 3 q [ #.#.#.#.D h h j           ",
"                        5 3 3 3 3 3 3 3 8 O $ $ 6 3 5 3 3 - $ $ O 9 3 3 3 4 8 7 2 3 5 3 3 3 3 3 5 J #.#.#.#.' z h h             ",
"                      5 3 3 3 3 3 3 5 4 & $ $ $ = 3 3 3 4 % $ $ $ = 3 3 3 3 5 5 5 3 3 3 3 3 3 3 s +.#.#.#.#.Z h h h             ",
"                    3 3 3 3 3 3 3 3 3 4 @ $ $ $ * 5 3 3 4 # $ $ $ % 5 3 3 3 5 3 5 3 3 3 3 3 3 y } $.#.#.#.E l h h               ",
"                  3 3 3 3 3 3 3 3 5 3 3 - $ $ X : 3 3 3 3 : X $ o 6 3 3 3 3 3 3 3 3 3 3 3 3 r [ $.#.#.#...b h h k               ",
"                e 3 3 3 3 3 3 3 3 3 5 3 4 > - 6 4 3 3 3 3 3 8 : 8 3 3 3 3 3 3 3 3 3 3 3 3 r ( #.#.#.#.O.V h h j                 ",
"              #.~ r 3 3 3 3 3 3 3 3 3 3 3 3 3 3 3 3 3 3 3 3 3 3 3 3 3 3 3 3 3 3 3 3 3 3 i [ #.#.#.#.#.D j j h                   ",
"            #.#.#.[ u 5 3 3 3 3 3 3 3 3 3 3 3 3 3 3 3 3 3 3 3 3 3 3 3 3 3 3 3 3 3 3 3 s | $.#.#.#.#.Y k h h j                   ",
"          #.#.#.#.$. .g 0 3 3 3 5 3 3 3 3 3 3 3 5 3 3 3 3 3 3 3 3 3 3 3 5 3 3 3 3 e K @.#.#.#.#.#.T l h j j                     ",
"        x E #.#.#.#.#.#.^ a 5 3 3 3 3 3 3 3 3 3 3 3 3 3 3 3 3 3 3 3 3 3 3 3 3 0 d { $.#.#.#.#.#.F k h h j                       ",
"      k h l Y #.#.#.#.#.$.@.~ a 0 3 3 3 3 3 3 3 3 3 3 3 3 3 3 3 3 3 3 3 3 q s / #.#.#.#.#.#.o.A h h h h                         ",
"      j j h j Z ] #.#.#.#.#.$.@./ g t 0 3 3 3 3 3 3 3 3 3 3 3 3 3 3 0 u J [ #.#.#.#.#.#.#.` M j h h k                           ",
"        j h h h v W #.#.#.#.#.#.$.#. ./ J d i e q 0 0 0 0 q r p f L [ @.$.#.#.#.#.#.#.O.Y z h h j j                             ",
"          j j h h k V ) #.#.#.#.#.#.#.#.#.#.+. .{ [ [ ( [ |  .@.#.$.#.#.#.#.#.#.#.#.W m j h h j                                 ",
"              j h h h z Z ) #.$.#.#.#.#.#.#.#.#.#.#.$.$.#.#.#.#.#.#.#.#.#.#.#.O.Q B k h j h h                                   ",
"                j j h h h l B R X.#.$.#.#.#.#.#.#.#.#.#.#.#.#.#.#.$.#.#.#.' T m k h j j j j                                     ",
"                    j h h h h h c V T ) ..#.#.#.#.$.#.$.$.$.$.#.#...Q Y N z h h h h j j                                         ",
"                        j j h h h h h l v M Z D T R E E R Y D C m c l h h h h h j j                                             ",
"                            k j j h h h h h h h h h h j h h h h h h h h h h j                                                   ",
"                                    j j j h h j h h h j h h h h h j h j                                                         ",
"                                              k k j j k j k                                                                     ",
"                                                                                                                                ",
"                                                                                                                                ",
"                                                                                                                                ",
"                                                                                                                                "
};
