/* XPM */
static char *_ae15d43149b430c8ebc2eac27df0a8fQIOiWY2cMGKzga27[] = {
/* columns rows colors chars-per-pixel */
"64 64 198 2 ",
"   c None",
".  c #020202",
"X  c #0A0B0C",
"o  c #060708",
"O  c #0D0F11",
"+  c #0F1012",
"@  c #121315",
"#  c #14161A",
"$  c #16191D",
"%  c #1A1B1D",
"&  c #191411",
"*  c #130E0A",
"=  c #241D1B",
"-  c #291E16",
";  c #2E231C",
":  c #29201B",
">  c #33241A",
",  c #3C2A1D",
"<  c #392519",
"1  c #171A20",
"2  c #1A1E23",
"3  c #1E2125",
"4  c #1E232A",
"5  c #222324",
"6  c #2D2622",
"7  c #21262D",
"8  c #24292D",
"9  c #2C2A2B",
"0  c #322A25",
"q  c #3C2D21",
"w  c #332D29",
"e  c #382F28",
"r  c #3D332C",
"t  c #393027",
"y  c #252C34",
"u  c #2A2E34",
"i  c #282F39",
"p  c #2E3134",
"a  c #2B323B",
"s  c #323335",
"d  c #31373E",
"f  c #35383C",
"g  c #393635",
"h  c #412C1D",
"j  c #472B19",
"k  c #4E311E",
"l  c #52331E",
"z  c #443324",
"x  c #4F3825",
"c  c #44362A",
"v  c #4D3C2B",
"b  c #473727",
"n  c #533520",
"m  c #553A25",
"M  c #5C3C25",
"N  c #513E2D",
"B  c #5C3E28",
"V  c #443A31",
"C  c #493D33",
"Z  c #503F30",
"A  c #603F28",
"S  c #53412E",
"D  c #5B422C",
"F  c #544325",
"G  c #4B4137",
"H  c #544231",
"J  c #5C4633",
"K  c #5E4936",
"L  c #614127",
"P  c #65442C",
"I  c #6B4A2F",
"U  c #644B2C",
"Y  c #725A2A",
"T  c #634B33",
"R  c #6D4C30",
"E  c #654E39",
"W  c #704E32",
"Q  c #6C533A",
"!  c #755234",
"~  c #785637",
"^  c #75563A",
"/  c #785638",
"(  c #74593C",
")  c #7D5C3D",
"_  c #635220",
"`  c #7C672E",
"'  c #2E3641",
"]  c #2F3842",
"[  c #313741",
"{  c #323A45",
"}  c #343E49",
"|  c #36404D",
" . c #3A434E",
".. c #3D4145",
"X. c #3B4652",
"o. c #3D4956",
"O. c #3F4B59",
"+. c #374350",
"@. c #414449",
"#. c #484848",
"$. c #414D5C",
"%. c #464C55",
"&. c #44505E",
"*. c #57585B",
"=. c #5A5B5E",
"-. c #555659",
";. c #534A44",
":. c #725C46",
">. c #6C5540",
",. c #78614A",
"<. c #7E6850",
"1. c #465363",
"2. c #485665",
"3. c #495666",
"4. c #4A5768",
"5. c #4B5A69",
"6. c #4D5D6E",
"7. c #4E5E6F",
"8. c #4D5D6D",
"9. c #4C5B6C",
"0. c #4F5F71",
"q. c #4E5F70",
"w. c #515F72",
"e. c #515E6F",
"r. c #5B6168",
"t. c #4F6071",
"y. c #526274",
"u. c #556679",
"i. c #58697D",
"p. c #58687B",
"a. c #686A6E",
"s. c #66686C",
"d. c #6C6F73",
"f. c #6E7075",
"g. c #707277",
"h. c #737478",
"j. c #787A7E",
"k. c #805D3D",
"l. c #805736",
"z. c #836D39",
"x. c #8A712C",
"c. c #866443",
"v. c #896543",
"b. c #8E6A47",
"n. c #8F6B48",
"m. c #936E4A",
"M. c #966D49",
"N. c #95714C",
"B. c #9A744E",
"V. c #846E55",
"C. c #866F58",
"Z. c #877158",
"A. c #8A735A",
"S. c #9E7751",
"D. c #9F7851",
"F. c #92795F",
"G. c #A57B54",
"H. c #A97E56",
"J. c #937B61",
"K. c #9C8138",
"L. c #B8953E",
"P. c #9A8551",
"I. c #AD8158",
"U. c #AD8157",
"Y. c #B5865C",
"T. c #B7885D",
"R. c #B9895E",
"E. c #B99E50",
"W. c #9C8165",
"Q. c #D8B348",
"!. c #F1C54A",
"~. c #F6D577",
"^. c #5C6D82",
"/. c #5E7086",
"(. c #5E7186",
"). c #5F7288",
"_. c #63768D",
"`. c #63768D",
"'. c #64788F",
"]. c #64788F",
"[. c #607187",
"{. c #7C7F84",
"}. c #657990",
"|. c #7D8085",
" X c #828589",
".X c #86898D",
"XX c #85878B",
"oX c #8C8E93",
"OX c #8F9196",
"+X c #909297",
"@X c #929599",
"#X c #979A9E",
"$X c #9B9DA1",
"%X c #9FA1A5",
"&X c #A0A2A6",
"*X c #A4A6AA",
"=X c #AEAFB4",
"-X c #D9C587",
/* pixels */
"                                                                                                                                ",
"                                                                                                                                ",
"                                                                                                                                ",
"                                                                                                                                ",
"                                                                                                                                ",
"                                                    # 2 2 9 3 2 2 5 3 3 3 5 #                                                   ",
"                                            X O y % } 1.$.$.$.$.&.&.o.y.&. .y 3 2 5 X                                           ",
"                                      # % }  .} 1.%.' 1.q.7.e.q.7.$.2 [ 7 i o.1.} e.X.X.a +                                     ",
"                                  X y 5.y.`._.e.X.3.# ] 7.7.7.7.7.7.X.a 1.9.1.4 | }.}.^.O.{ # . X                               ",
"                              y y # } _._._.9.7 1.[.1.3 1.7.5.5.7.7.7.5.O.4.y 1 ^.).$.4 X.^.+.a p 3                             ",
"                          % 4 1.7.o.' ^.'._.u.$.{ i._.i y $.y 7 $.3.7.$.} } ] 5.)./.3.1.).}.}.[.7.y  .3                         ",
"                        8 o.3.7.q.q.X.a ^.'.'.[.i.[.}.u.7 X y ' y 2 a  .1.2 &.}.}.}.}.u.^.}./.{ y 1.7.X.$                       ",
"                      # X.7.7.7.7.7.1.4 a /.&.} } } 4.}.p.7 $.9.9.o.} 5.| O._._.^.i.} o././.' 2 o.+.9.7.y o %                   ",
"                    1 X.q.7.7.9.9.7.7.1.7 u X.3.1.1.0.^.i.a 7 1.1.3.3.3.' q.^.q.i i &.y._.X.2 1.5.3.7.7.] 4 d                   ",
"                  X a t.q.9.9.7.7.7.e.} r 0 = 5 w w w 0 6 % - 6 6 6 6 - = 6 w 0 6 = = 6 #.f { e.3.o.9.9.5.5.9.8 X               ",
"                @ a 4 o.3.7.9.7.5.[ ;.N P P j k R W W I B j P I ! I I j M R R ! R m j M R D b [ o.y 9.7.7.e.5.8 #               ",
"              X 4 1.p.{ 7 1.q.1.d q P l.W P k A b.M.B.m./ k v.b.S.m.b.M ! m.m.S.m./ n l.M.G.G./ g a 7.9.9.X.[ i [ 2             ",
"            @ 4 u.$.4.i.a 7 &.5 < R W l.) k.A P B.G.H.B.k.l b.B.H.B.N.L / B.B.H.S.k.M v.M.H.H.B.U 6 $.9.] # y } 4.9.            ",
"            5  .'./.$.i.^.{ ..> k I R N.B.M.A P B.B.G.B.k.l b.B.H.B.M.L ~ N.B.H.N.k.M v.B.H.R.S.R n G ] 2 3.4.3.`.i.5           ",
"            3 i._.`./.`.'.y.V k n I ) Y.B.M.A P N.G.G.B.k.l b.B.H.B.m.P / B.B.H.S.k.l v.B.H.H.B.R D ( % 2.}.}._.`.`. .          ",
"            o.'.'.y.{ 1.u.i n n k ~ B.R.D.M.M P B.S.H.B.k.l b.B.H.B.B.L ~ B.B.H.B.k.n v.B.H.H.S.R D m.C u.[.0.0.u.}.9.O         ",
"            4._._.).i.X.{ t P n l b.B.Y.D.M.A P B.S.G.B.k.l b.B.H.B.N.L ~ B.B.H.B.k.M c.M.H.R.S.I A B.,.u X.} { $.[.u.2         ",
"          + % 4 4 4 7 4 $ x R l B N.S.R.B.M.A P B.B.H.B.k.l b.B.H.B.M.L ~ B.B.H.B.k.n c.S.H.Y.M.W A B.v.* o 3 4 4 4 7 #         ",
"          1 y # . . . 2 % m R n P N.S.R.D.M.A P B.S.H.B.k.l b.B.H.B.N.L ~ B.B.H.B.k.M v.S.H.H.S.W M N.c.5 7 4 7 4 7 7 7 #       ",
"          2 a 7 a o.X.o.} M I l P N.D.T.S.m.M P B.S.G.B.k.l M.B.H.B.N.L ~ B.B.H.B.k.n v.M.H.R.S.R A N.c...y.' { ] ] +.u.7       ",
"          @ 8 9.).}.}.9.7 m R l P N.S.T.S.M.M P B.G.G.B.k.l b.B.U.B.N.L ~ B.B.H.S.k.M v.N.H.H.B.R B B.c.@. .{ w.y.9.7 # X       ",
"           .`.'._._.}._.+.m W l P B.S.T.S.M.A P N.S.G.B.k.l b.B.H.B.B.L ~ B.B.H.B.k.n z.B.H.H.S.R A N.c.@._._._.}.}.u.] #       ",
"           .}.}.}.}.}.}.@.m I l P B.B.T.S.M.A P B.G.G.B.k.l b.B.H.B.M.L ~ B.B.I.B.k.M c.B.H.Y.S.I A B.c.@.}.}.}.}.}.}.).y       ",
"          y o.o.o.o.o.o.i m R l P N.S.T.G.m.M P B.S.G.B.k.l b.B.U.B.M.D ~ B.B.I.S.) m v.B.H.Y.B.W A B.c.u o.o.o.o.o.o.X.2       ",
"          o X X X . o X X m R l P B.S.T.S.m.A P N.G.H.B.k.l b.B.U.B.N.L ~ B.B.G.B.k.n v.B.G.Y.B.I A B.c.& o X O o X X X X       ",
"          a &.1.o.4 y } a ; , - > v N J N b > > v N H v z - b N S N v > q v v H v z > z v S J v , > v z y 1.X.' 1 X.1.o.2       ",
"          a 7.O.7 1.O.X.} =.f.d.{.j.d.d.d.d.h. Xg.d.d.d.g. Xj.f.d.d.f.j.|.f.f.f.d.d.{.j.d.d.d.d.f. Xf.s.' { ' { 7 4 3.3.4       ",
"          a 3.2 4 5.7.q.} h.@X|.%X*XOX+XOXoX+X=X@X+XOXOX@X*X$XOXOX+XOX@X%XOXOXOX+X.X$X%XOXOX+XoXoX=X$X{.{ O.&.7.5.7 | 4.4       ",
"          a q.X.a 3.7.7.{ *.f.d.a.d.f.d.d.d.a.d.d.d.d.d.d.a.d.d.d.d.f.a.a.f.f.f.d.s.s.d.f.d.d.d.a.d.d.r.d 7.7.7.$.X.{ 3.4       ",
"          ' e.t.t.t.7.t.d ; q > 0 N H K H v < q H H H N c ; x S J S v > t S S H Z c > c Z H T Z q > N c p q.t.t.&.q.q.5.4       ",
"          4 } { } } } } 8 m R n P B.D.R.D.m.A P S.S.H.B.k.l m.B.H.B.N.P ~ B.B.I.S.k.M c.N.H.Y.S.W A B.v.8 } } } } } } ] #       ",
"          y $.X.X.o.o.O.u m I l P N.D.T.S.m.M P N.D.G.S.k.l b.B.U.B.N.L ~ B.B.I.B.z.n c.B.H.Y.S.I M N.c.p o.O.o.O.o.o.X.2       ",
"          d 7.$.y.}.}.}.o.m I l P N.B.T.G.m.M P N.D.G.N.k.l b.B.G.B.N.L ~ B.N.I.B.) M c.N.H.I.( N v ) c..._.}.).q.5.y.[.y       ",
"          i X.3._.}.}.}.@.m I l P B.D.T.S.m.B P N.S.G.S.k.l b.B.U.B.N.L ^ B.B.I.B.k.m c.N.H.S.K.Q.-XP.( @.).}.(.X.X. .} $       ",
"           .'._._._.}.}. .m W l P B.B.T.S.M.M P S.S.G.S.k.l b.B.H.B.M.D ~ B.N.I.B.k.m c.B.) F x.!.~.E.v ..}.}._._.}./.1.2       ",
"           ._._.}._.}.).X.m I l P N.G.Y.B.m.M P N.D.H.B.) l b.B.H.B.M.L ~ B.B.H.B.) m c.B.T _ D L.L.b.` #._.}._._.}.}.).8       ",
"          { i.i.i.i.i.^.| m I m P N.B.T.G.m.A P B.D.G.B.) l b.B.H.B.N.L ~ B.B.I.B.) l c.B.v.Y U b t U ` d i.i.i.i.i.i.y.4       ",
"          1 y i i y i y % m T l P B.B.T.S.M.M P B.S.H.B.k.l m.B.U.B.N.L ~ B.B.H.B.k.M v.B.H.M.Y ` ` x S 5 y y i y i y y #       ",
"          a 9.5.5.5.5.9.d m I l D B.G.Y.S.M.A P B.D.G.B.k.l b.B.H.B.N.L ~ B.B.U.S.k.M z.M.H.Y./ z j c.c.f 9.5.5.3.9.9.1.2       ",
"          y 5.7.9.6.t.q.] m I l P N.S.T.S.m.M P B.D.H.B.) l b.B.H.B.N.L ~ B.B.G.B.k.n v.B.H.Y.S.Y A B.z.f 7.7.7.9.7.q.3.4       ",
"          2 ' a 1.1.] 3.{ m I n D B.S.T.S.M.A P B.B.G.N.k.l b.B.H.B.M.L ~ B.B.U.N.k.M v.M.H.Y.M.Y F N.v.f q.y.9.5.9.5.' #       ",
"          | o.| ' a  .4.d m I l P N.S.T.D.M.A P N.G.G.B.k.l b.B.H.B.N.L ~ B.B.G.S.k.n c.B.H.H.S.R A N.v.f q.u.} y a 1.} $       ",
"           .t.t.3.3.t.t.d m I k P B.S.T.S.M.A P B.D.G.B.k.l b.B.H.B.N.L ~ B.B.U.S.k.n v.B.H.Y.S.R M B.c.f 9.q.5.5.1.9.5.4       ",
"          d 1.1.1.1.1.3.a m I l P B.B.T.S.m.M P S.S.G.B.k.l b.B.U.B.M.P / B.B.H.B.k.n c.B.G.Y.S.W M S.c.s 1.1.1.1.1.1.$.2       ",
"          3 a a a y y a 2 m I k D m.B.Y.B.b.M P m.S.D.N.) k v.N.G.N.n.M ! N.m.G.B.) n c.m.G.H.B.I M M.:.5 i i a i i i y #       ",
"          &.`.).).`./.`.| ; e 6 0 V C C V c 0 w V V V V r 6 c V C V V w t V V C V r 0 r V C C V e 0 V c 5 0.).).^.).).^.8       ",
"           .y.i.^.`._._.o.s.|.{.#X+X|.{.{.{..X$X X{.{.|. X%X@X{.{.|.{..X$X X{.{.{.{.@XoX{.{.{.{..X$XXX{.@.q.}.^.3.}.}./.y       ",
"          p } %.&.^._.'.O.h.+X.X$X$XOXOX+XoXoX&X+X+XOXOXoX*X&XOXOXOXoXoX*X+X+X+X+XXX+X$X+X+XoXOXoX&X+XoX%.e.}.).y.X.3.5.1       ",
"          &.'.i.^.'._.'.o.#.=.=.*.-.=.=.=.=.=.*.=.=.=.=.=.-.=.=.=.=.=.*.=.=.=.=.=.=.-.=.=.=.=.=.=.*.=.=.s e.}.}.^.i &.7.2       ",
"          $.'.'.'._.'.'. .> z < , T E ^ T T < j T E Q T N < D T Q T K h x T T Q T N < D T Q ^ P z h T N p ^.}.}._.^._./.y       ",
"          u { { { { { { 7 B W l P B.G.T.G.M.A I S.D.H.B.k.l m.B.U.B.B.L ) S.B.H.S.k.M c.B.H.T.S.W A B.v.w ] } ] { } } ' #       ",
"          a o.o.o.o.X.o.u m T l A N.S.T.S.m.A P B.G.G.B.) l b.B.H.B.N.L ~ B.B.H.S.k.M c.B.H.Y.B.R M B.c.u o.o.o.o.o.o.+.1       ",
"          | q.7.X.X.y.7.[ m W l P B.S.T.S.m.A P N.B.G.B.k.l b.B.H.B.N.L ~ B.B.H.B.k.n v.B.H.Y.B.R D N.c.f q.t.3.X.q.q.9.4       ",
"          } 7.3.y o.$.1.{ m I l D B.S.T.S.m.B P B.B.G.B.k.l b.B.H.B.B.L ~ B.B.H.B.k.M c.B.H.U.B.R P B.c.f 7.9.X.] } 9.3.4       ",
"          d y.o.o.7.5.y.} m I l P B.S.T.S.m.A P B.G.G.B.k.l b.B.H.B.M.L ~ B.B.U.B.k.n c.B.H.Y.B.R M B.v.9 1.X.9.o.a 5.5.2       ",
"          i 1.1.1.1.1.3.s m I l P N.S.T.B.m.M P N.D.H.B.:.l m.B.G.S.m.P ~ B.N.H.S.:.n c.N.G.I.S.R B N.v.9 %.1.1.1.3.3.$.2       ",
"          @ $ $ $ $ $ $ @ N T x J V.A.J.A.V.N K V.A.F.Z.:.x V.V.J.A.V.H Q Z.Z.J.Z.:.m ,.Z.J.W.A.E D Z.,.% $ # 1 $ $ $ $ O       ",
"                                                                                                                                ",
"                                                                                                                                "
};
