/* XPM */
static char *_9e7eb371da6403ff4f8a1bdbbafe3536Kuozu3RFvEZyeiE[] = {
/* columns rows colors chars-per-pixel */
"64 64 164 2 ",
"   c None",
".  c #030303",
"X  c #060709",
"o  c #07080A",
"O  c #0A0A0C",
"+  c #0E0F10",
"@  c #141515",
"#  c #171817",
"$  c #131619",
"%  c #16181C",
"&  c #1C1C1D",
"*  c #1F201F",
"=  c #171B20",
"-  c #1B1E23",
";  c #1E2123",
":  c #1E2329",
">  c #232424",
",  c #272827",
"<  c #22262B",
"1  c #27282A",
"2  c #2A2C2C",
"3  c #2F302F",
"4  c #252C34",
"5  c #2A2E33",
"6  c #272F38",
"7  c #282F39",
"8  c #2F3131",
"9  c #2B323C",
"0  c #343535",
"q  c #363837",
"w  c #34373A",
"e  c #363839",
"r  c #3C3E3D",
"t  c #3E403F",
"y  c #2E3741",
"u  c #2F3843",
"i  c #303742",
"p  c #333B44",
"a  c #3D3F41",
"s  c #343E49",
"d  c #383F48",
"f  c #3E4042",
"g  c #36414C",
"h  c #3A424C",
"j  c #3B4552",
"k  c #3D4855",
"l  c #3F4B58",
"z  c #424445",
"x  c #444749",
"c  c #47494A",
"v  c #494B4D",
"b  c #434A53",
"n  c #4D4F51",
"m  c #414D5B",
"M  c #4F5152",
"N  c #44505E",
"B  c #4A5158",
"V  c #515355",
"C  c #54575A",
"Z  c #56585B",
"A  c #595B5D",
"S  c #465363",
"D  c #495666",
"F  c #4B5867",
"G  c #495768",
"H  c #4D5C6D",
"J  c #5C5E61",
"K  c #525F6F",
"L  c #4E5F70",
"P  c #515F71",
"I  c #5E6063",
"U  c #4F6072",
"Y  c #526275",
"T  c #566679",
"R  c #56667A",
"E  c #556578",
"W  c #57677C",
"Q  c #566679",
"!  c #596779",
"~  c #57687C",
"^  c #58697D",
"/  c #586A7E",
"(  c #5A6A7E",
")  c #626466",
"_  c #646669",
"`  c #67696C",
"'  c #696C6E",
"]  c #6B6E71",
"[  c #6D7073",
"{  c #717477",
"}  c #737679",
"|  c #777A7D",
" . c #76797C",
".. c #787A7E",
"X. c #797B7F",
"o. c #5A6C81",
"O. c #5B6C82",
"+. c #5C6D82",
"@. c #5C6E82",
"#. c #5C6D82",
"$. c #5F7187",
"%. c #5F7187",
"&. c #5F7188",
"*. c #5F7289",
"=. c #5F7288",
"-. c #617287",
";. c #61738A",
":. c #617489",
">. c #61748A",
",. c #62758B",
"<. c #62758C",
"1. c #63768D",
"2. c #62768D",
"3. c #63778E",
"4. c #62758C",
"5. c #64788F",
"6. c #64788F",
"7. c #7B7E81",
"8. c #647890",
"9. c #657890",
"0. c #667A92",
"q. c #657991",
"w. c #687B91",
"e. c #7E8285",
"r. c #808487",
"t. c #83868A",
"y. c #868A8D",
"u. c #888C8F",
"i. c #8B8E92",
"p. c #8E9195",
"a. c #8D9195",
"s. c #8F9498",
"d. c #909397",
"f. c #909598",
"g. c #93979B",
"h. c #929599",
"j. c #93989C",
"k. c #94989C",
"l. c #94989D",
"z. c #94989C",
"x. c #989B9F",
"c. c #979AA0",
"v. c #989BA0",
"b. c #999CA1",
"n. c #9C9FA4",
"m. c #9A9DA2",
"M. c #9DA0A4",
"N. c #9EA2A6",
"B. c #A1A4A9",
"V. c #A1A5A9",
"C. c #A5A8AE",
"Z. c #A6A9AE",
"A. c #ACAEB3",
"S. c #AEB1B6",
"D. c #B0B3B7",
"F. c #B1B4B8",
"G. c #B5B8BE",
"H. c #B6B9BD",
"J. c #BABCC3",
"K. c #BBBDC2",
"L. c #BEC1C5",
"P. c #C0C2C6",
"I. c #C4C6CA",
"U. c #CCCED2",
/* pixels */
"                                                                                                                                ",
"                                                                                                                                ",
"                                                                                                                                ",
"                                                                                                                                ",
"                                                    $ < - 5 < - ; 4 < 4 4 4 % .                                                 ",
"                                            O $ p < j H G G G G H S g E S s i 9 4 4 % O                                         ",
"                                    + - : m S b S m < k L H H H H S : < : 9 m S u Y H S l $ @                                   ",
"                                  O y W O.8.,.S b H - 6 H H H L H H S p D H S ; p *.3.o.b j 7 . .                               ",
"                            @ 9 y - s 2.2.2.F < G 3.Y : l L G G H U H L k S s $ E ;.l < p &.H j j < ;                           ",
"                          - 7 H H S d R 0.3.+.S u W 3.p : j : - g l H N s s y Y ;.2.R Y *.3.3.;.K 9 k 9 +                       ",
"                        6 N H H H L k 4 R 2.2.;.O.&.;.@.y o 7 j 9 : < g S < l 3.3.2.2.Y W 3.*.s ; l H S 4 O                     ",
"                    @ - N L H H H H G 1 4 R m i y y N 0.;.7 d L L S j H j m 3.3.o.Y j j O.*.j - l g D Y j . %                   ",
"                  @ : N H L H H H H L D 4 - s l l m S L L 7 % j k k k l 9 k L G < - s G L j = l L G H U l : g 9                 ",
"                  X p H H H H H H P m h C V C J J C C C C C V C Z Z C C C C C C V J J C C x 4 j G g S H H H U g O               ",
"                $ s 6 j S L H L b F J | i.c.h.n.J.c.g.c.z.g.z.d.B.G.c.g.g.g.l.g.n.J.C.g.g.a.7.J B 9 S U H L H p % @             ",
"              + 6 D o.y : S U l ; B {  .} } { ] } 7.} } } } } { ' ] } } } } } } ] ]  .} } } } } C ; l H L k w 1 d 6             ",
"            O 9 ^ l F o.7 < k % @ 2 2 2 > v A r @ 2 2 > e A Z 0 > 2 2 , 8 Z V 1 2 , ; ; V Z 3 , , * : N k = - s m ^ p           ",
"            > N 0.*.S @.+.7 - @ > r r t 0  .z.J @ r t 3 Z g.h.v 0 a a q v g.u.q r r 3 , i.h.c q t q 3 e - b P S ;.8.p           ",
"            4 -.3.*.O.2.8.j C r - t r t 8  .z.I # r t 8 A h.d.v 0 r r 0 c d.u.q r r 2 , i.h.x 0 r 0 B ) b @.8.8.8.3.F <         ",
"          % G 3.3.H p S Y x t.a * t t r 3 ..z.I @ r t 8 Z d.h.v 0 r a q c g.u.q r r 2 , i.h.x q t 0 M r.5 E Y G H ;.;.:         ",
"          - Y 3.*.*./ j d C h.a > t r r 0  .g.I @ r r 3 C h.s.v 0 t r q c d.u.q r r 2 , i.d.x q r 0 M d.V x s s j O.*.i +       ",
"          O % : - : : : 1 ] g.a & r r r 2  .z.) @ r r 8 A g.g.c 0 t t 0 v h.u.q r r 2 , i.h.x 0 t 0 V g.[ @ % : - - : = O       ",
"          - 4 $ . . . : = c C 5 & 2 2 2 > c Z r @ 2 2 > e C C 0 , 2 3 , 8 C V , , 2 * * V Z 8 , 2 > 0 C n ; 4 4 4 < < 6 ;       ",
"          - 9 < s b k b d ] } 7.u.7.{  . .}  .7.i.7.}  . . .} } ..p...}  .} } } 7.d.r.} } }  . .X.d.r.} ] s s y s u y P k       ",
"          $ 9 P ;.0.3.S w i.g.h.F.B.h.h.g.g.h.x.K.b.g.z.z.g.z.p.p.P.b.h.k.h.g.g.x.I.A.h.g.g.h.h.p.F.B.k.i.0 7 G L P s $ +       ",
"          N 3.8.3.3.3.;.p n C n V V V V V C C V V V V V V C C V n V V V V Z C V V V M M C Z V V M M V Z n d <.3.8.8.*.k :       ",
"          N 0.0.0.0.0.2.x ' { 0 # 0 2 0 > J  .v @ 3 3 > x { { r 2 8 8 2 e } ] 2 3 3 * & [ { q 2 3 , t { ` j 8.8.0.8.8.0.N       ",
"          9 m l l l l l p i.g.t * r r r 3 ..z.) @ r r 3 A h.h.v 0 r t q v h.u.e r t 2 2 p.d.c q t 0 M g.y.p l m m m m m 7       ",
"          o o O O . X X > y.h.a * r t r 3  .z.J @ r t 3 A h.d.v 0 r t 0 c d.u.0 r r 2 , u.d.c 0 t 0 n h.y.* X O X o o o o       ",
"          9 m S s - 6 s d y.h.t > r r r 3  .g.J @ r t 3 A d.d.v 0 t r q c h.u.e r r 2 , i.d.x q r 0 M h.t.p k s - y m m 7       ",
"          s L k < G j s h u.h.a & t r r 0  .g.J # r r 3 A d.d.v 0 t r q c d.y.e r r 2 , i.d.x 0 t 0 M h.y.6 9 9 6 = k L s       ",
"          s S % 7 L L H h u.g.f * t t r 3  .x.) @ r t 3 A g.g.v 0 t t q v h.i.e r t 2 , p.h.c q t 0 V k.y.w k H L y 4 H s       ",
"          s H p 9 G H H i ) ] 8 # 3 2 3 > A [ c + 2 3 > z ] ] 0 , 3 3 , 0 ] _ , 2 2 > & ` ] 0 2 2 , r ] ) p H U S N 4 S u       ",
"          s L H L L L L w A J J ) I A J A J I I ) J A J J J J J I _ J A J J J J J ` I A J J A A I ` I J C w H Y N H L L s       ",
"          7 j j j j j d p i.z.m.P.V.g.g.g.g.h.B.I.n.c.l.g.h.c.d.N.I.b.z.z.z.z.g.B.U.S.z.g.z.z.z.m.U.Z.g.u.w h j j j j j 6       ",
"          4 j g s s j g 5 _ ] ' { [ ] ] [ [ ' ] } [ ] ] ] ] ] ' ` [ [ [ ] ] ] ] ' ' } [ ] ] ] ] ' { [ [ ) 9 g g g g g j <       ",
"          j R m o.0.0.2.d V J 2 # 2 2 2 > v J a @ 2 2 * e J J 8 , , , , 8 J C > , , & & C A 0 > 2 > 0 A V h 6.6.o.Y Y 2.m       ",
"          7 s S *.0.0.;.b u.g.a * t r r 8 ..x.I @ r t 5 J h.d.v 0 r t q v h.i.e r r 2 2 i.h.x e t 0 V g.y.b ,.2.N y p k 9       ",
"          N 8.3.8.3.3.;.b u.g.t * t r r 8 ..g.I @ r r 3 J p.d.v 0 r r 0 c d.y.e r r 2 2 i.h.x 0 t 0 M g.t.b 2.2.;.3.;.D 9       ",
"          b 0.3.2.3.3.;.b y.h.t * r r r 8 ..g.J # r t 3 Z d.h.v 0 r r q c h.u.e r r 2 > i.d.x 0 r 0 M g.t.b 2.6.3.3.2.0.l       ",
"          l ;.*.*.*.*.%.j y.h.r * t r r 3  .g.I @ r r 8 A d.d.v 0 t t 0 c d.u.e r t 2 , i.p.x 0 r 0 M h.t.b %.%.*.&.*.*.k       ",
"          ; 7 7 6 6 6 6 8 y.h.r * t r r 3  .x.J @ r t 8 A h.d.c 0 r r 0 c h.u.0 e r 2 , i.h.x 0 r 0 n h.y.5 6 6 7 7 7 7 -       ",
"          u S S S S S S p X.y.) C J J J A  .y.[ M J J Z ' t.t.` A I I A _ t.r.A I I C C t.t.) J I I ` y.| p S S S S S S y       ",
"          u L U L H H H h r.p.h.S.x.p.p.p.p.p.g.A.h.p.p.p.p.p.u.g.Z.d.p.p.p.i.p.h.S.b.p.p.i.i.p.p.S.x.i.r.h H K L L L L s       ",
"          - g j H S j D h r.i.r.u.h.i.i.u.i.i.7.u.p.i.p.i.i.i.u.y.b.p.p.i.i.i.i.y.k.k.p.i.i.i.i.e.r.p.i.e.h U H H L U l 4       ",
"          s s 9 p 9 u D 9 n Z z w r z t t V C v r a a r n Z Z c r r a a c C C f r r a z V Z c t r r x Z M w E S 9 9 m s -       ",
"          l H H l N L H a  .e.0 # 0 0 3 , ` r.V @ 8 8 , n e.e.a 2 0 8 2 r e. .3 8 0 * * ..e.r 2 0 2 x e.} p H D m k S L s       ",
"          g H H H H H D h y.h.z * r t t 3  .g.) @ r r 3 A h.h.v q r r q v d.u.e r t 2 , i.h.c 0 r 0 V g.t.h H H U H H H p       ",
"          ; 7 6 6 4 6 4 5 u.h.a * t t r 8  .k.I @ r r 8 A d.d.c 0 t a q c h.u.q r r 2 , i.d.c 0 r 0 M h.y.5 4 6 4 6 6 6 =       ",
"          m R Y E R Y Y h u.h.a * t r r 8  .k.I # r r 8 Z g.g.v 0 r r 0 c d.u.q r a 2 , i.d.x e r 0 M h.t.h Y Y E Y E R s       ",
"          F -.,.,.w.6.2.b y.g.a * t r t 8  .k.I @ r t 8 J d.h.v 0 t a q c g.u.w e t 2 , i.d.c 0 t 0 M h.y.b 2.8.H @.0.0.m       ",
"          6 9 m m %.2.2.b X.t.r & q q q 2 ] y.Z @ 0 r 2 V t.t.z 8 q q 8 f t.7.8 0 e , > e.t.t 5 q 3 c y.7.b ;.3.R L Y @.s       ",
"          N %.U W 3.3.;.w f v r 0 r a a r x n z 0 r a e z n v a r r r r a n v r r r e e n v t r t r z v x d 2.3.;.y 4 P 4       ",
"          F 0.0.8.3.0.2.s } p.d.H.B.i.p.p.p.i.c.K.x.p.p.p.p.d.p.b.H.c.p.p.p.i.d.c.K.Z.p.i.i.i.h.h.H.B.i.r.b 3.8.8.o.W 0.b       ",
"          h S S S S S S 6 ] y.r.g.d.y.y.y.y.t.r.m.d.t.y.t.t.y.t.7.d.p.y.y.t.y.y.u.d.h.u.y.y.u.y.t.m.h.y.X.p S S S S S S y       ",
"          5 9 9 9 y 9 9 > t v 0 > 8 5 0 2 h v r * 8 0 2 r c v 0 2 2 8 5 0 v c 5 2 , , 2 x v 0 2 8 2 w v x > 9 9 9 y 9 y :       ",
"          k U H S S P H h r.p.r & r q r 2 } d.A @ r r 2 C i.i.x 8 r r 8 c p.r.0 q r , > u.i.z 0 q 0 v d.r.h H H D H H L p       ",
"          j L D : j S S h y.h.a > t r r 3  .z.I @ r t 2 A h.h.c 0 r t q v d.u.0 r r 2 , i.h.c q t 0 M h.t.h H D p g H L p       ",
"          g U j s H N H x y.d.a & r r r 3  .g.J @ r r 0 A d.h.v 0 r r 0 v h.y.e r r 2 , i.d.x w t 0 M h.y.h k N m < k L p       ",
"          s H D H H L H h u.z.t > t t r 0  .z.I @ r r 8 A h.z.v 0 a r q v h.u.e r t 2 , i.h.x 0 t 0 M h.y.h S H H D H L s       ",
"          : 9 9 9 9 9 9 < C A 1 @ 2 > , * v A r + , , * r A A 2 > , , > 3 A V > , , & & C A 2 > , > 0 A V < 9 9 9 9 9 9 -       ",
"                                                                                                                                ",
"                                                                                                                                ",
"                                                                                                                                "
};
