/* XPM */
static char *b989b21e2f984cc4fb7e75b075f327595TNMcOg079fyBBMp[] = {
/* columns rows colors chars-per-pixel */
"64 64 196 2 ",
"   c None",
".  c #371917",
"X  c #371A18",
"o  c #3C1E1C",
"O  c #381A17",
"+  c #3D201E",
"@  c #3E2220",
"#  c #432524",
"$  c #462827",
"%  c #452A29",
"&  c #482C2B",
"*  c #4E3332",
"=  c #553B3A",
"-  c #593F3E",
";  c #1F665F",
":  c #24675F",
">  c #236B63",
",  c #2B6C65",
"<  c #316E67",
"1  c #376D67",
"2  c #2D746B",
"3  c #2F7A6F",
"4  c #38726C",
"5  c #317B70",
"6  c #5C4343",
"7  c #674F4F",
"8  c #6C5252",
"9  c #785B5B",
"0  c #44726D",
"q  c #7F6262",
"w  c #846A6B",
"e  c #806464",
"r  c #8F7576",
"t  c #947A7B",
"y  c #927677",
"u  c #3B8679",
"i  c #48857D",
"p  c #99798A",
"a  c #A67F94",
"s  c #A0788D",
"d  c #498F81",
"f  c #469283",
"g  c #499586",
"h  c #4D9989",
"j  c #529E8D",
"k  c #599487",
"l  c #698D87",
"z  c #76928E",
"x  c #6B948C",
"c  c #52A08F",
"v  c #54A191",
"b  c #5DA696",
"n  c #64AB9C",
"m  c #7CA49B",
"M  c #7FACA3",
"N  c #7BBAAD",
"B  c #71B5A7",
"V  c #9C8587",
"C  c #9F8F91",
"Z  c #879C99",
"A  c #A68A8B",
"S  c #A08587",
"D  c #A48393",
"F  c #AD839A",
"G  c #A98C99",
"H  c #A49395",
"J  c #AC9193",
"K  c #AD9B9D",
"L  c #AB969B",
"P  c #B49B9D",
"I  c #B2879F",
"U  c #83A19E",
"Y  c #B78BA4",
"T  c #BC8BA6",
"R  c #B486A0",
"E  c #B99EA1",
"W  c #85AAA2",
"Q  c #8CAAA4",
"!  c #93A4A2",
"~  c #9AAAA7",
"^  c #99B5AE",
"/  c #86BEB3",
"(  c #8ABDB4",
")  c #85B4AB",
"_  c #A7A9A9",
"`  c #B5A2A4",
"'  c #BBA5A7",
"]  c #BBA6A9",
"[  c #BAA9AB",
"{  c #A9B1AF",
"}  c #ADBCBA",
"|  c #AAB6B4",
" . c #BEB3B4",
".. c #B3BBBA",
"X. c #BABBBA",
"o. c #C28FAB",
"O. c #C492AE",
"+. c #C39EAD",
"@. c #CA96B3",
"#. c #CD99B6",
"$. c #CF9CB9",
"%. c #C696B1",
"&. c #D39BBA",
"*. c #D89EBF",
"=. c #C3ABAE",
"-. c #C8ACAF",
";. c #C3AEB1",
":. c #CAADB3",
">. c #C9A4B6",
",. c #D7A5BE",
"<. c #CAB2B5",
"1. c #CEB6BA",
"2. c #C4BBBD",
"3. c #C7B4B7",
"4. c #D2BABD",
"5. c #D0B5B9",
"6. c #89C1B7",
"7. c #8CC3B9",
"8. c #B7C0BE",
"9. c #DCA2C3",
"0. c #DDABC5",
"q. c #DBB3C3",
"w. c #D5BDC1",
"e. c #DABEC2",
"r. c #E1A5C6",
"t. c #E4A6C9",
"y. c #E7A9CC",
"u. c #E8ACCD",
"i. c #E7B2CD",
"p. c #EAB1CF",
"a. c #E2BECA",
"s. c #ECB4D1",
"d. c #EEBBD4",
"f. c #F0BFD5",
"g. c #BBC9C6",
"h. c #AFCAC4",
"j. c #CBC5C5",
"k. c #CEC5C8",
"l. c #CBCCCC",
"z. c #C2CAC8",
"x. c #D6C0C3",
"c. c #DBC2C5",
"v. c #D7C7C9",
"b. c #DDC6C9",
"n. c #D2CACA",
"m. c #DBCACD",
"M. c #C9D0CE",
"N. c #DECFD0",
"B. c #CED1D1",
"V. c #D3D2D2",
"C. c #DDDCDC",
"Z. c #DBD6D7",
"A. c #E2C6CA",
"S. c #E4C9CD",
"D. c #E8CBCF",
"F. c #E8C4CF",
"G. c #EEC5D5",
"H. c #E7CFD2",
"J. c #EBCDD3",
"K. c #F1C2D7",
"L. c #F3C7D8",
"P. c #F4CBDA",
"I. c #E2D1D3",
"U. c #EDD1D5",
"Y. c #E2DDDD",
"T. c #ECDADC",
"R. c #E9D6D9",
"E. c #F0D3D7",
"W. c #F3D5DA",
"Q. c #F8D4DE",
"!. c #F6D9DD",
"~. c #F5D9DD",
"^. c #F9DBDF",
"/. c #F8DBDF",
"(. c #F9D8DF",
"). c #F8DBDF",
"_. c #DDE0DF",
"`. c #EEDEE0",
"'. c #FBDAE1",
"]. c #FBDDE1",
"[. c #FADCE0",
"{. c #F9DCE0",
"}. c #FCDEE2",
"|. c #FDDFE3",
" X c #FCDFE2",
".X c #FDDEE2",
"XX c #FCDEE2",
"oX c #F7DBE1",
"OX c #E4E4E3",
"+X c #E8E6E6",
"@X c #EBE9E9",
"#X c #FEE1E5",
"$X c #FEE0E4",
"%X c #FFE4E8",
"&X c #F4E6E8",
"*X c #F3F0F0",
/* pixels */
"                                ] '                                                                                             ",
"                              A.W..XU.;.                                                                                        ",
"                              w.^.^.{.^.S.                                                                                      ",
"                              {.A.x./..X{..X<.                                                                                  ",
"                            1.|.t + A ~.$X.X{.A.                                                                                ",
"                            J.=.- O + J ^..X$X^.~.                                                                              ",
"                            %XV . + o $ P $X.X.X.X{.]                                                                           ",
"                          5.U.w . o o o 6 5.$X.X.X.X^.]               H ] ` H                                                   ",
"                          A.' * o o o o o S W.$X.X$X.X^.'     V w.^.^./.^.^.^./.A.                                              ",
"                          {.A O o o o o o $ -.$X.X{..X.X~.C A./.{.$X{.$X^..X$X$X^.U.4.                                          ",
"                          .XS . o o o + o + P ^.{.$X{.J.x.W.{.$X.X{.$X{.{.$X.X.X{.$XU.1.                                        ",
"                        4.U.w . + o o + # t D.$X$X^.c.U.{.{..X.X$X$X.X.X.X$X{.$X.X.X$XA.                                        ",
"                        1.4.8 O + o + 8 1.^.^..X.Xb.E.^..X{.$X$X{..X.X^.$X$X$X^.$X.X.X^.U.                                      ",
"                        w.<.- o + $ A W.^..X$X.XW.U.^.$X.X$X.X{.{.$X.X$X$X^.^.$X$X{..X$XA.                                      ",
"                        A.-.= o 8 <.^.$X^.$X.X{.4.E..X{..X{..X.X.X^.$X{..X.X^..X.X$X.X$XU.4.                                    ",
"                        E.-.7 w D.^..X$X^..X$XS.E.{..X$X.X$X{.$X.X$X.X.X{.$X$X.X.X{..X^.~.U.                                    ",
"                        ~.x.=.W. X^..X.X$X^.$X4.E.|..X{.$X.X.X{..X$X$X^.^.$X.X.X.X{..X{.$XA.                                    ",
"                        !.^.^..X.X$X.X$X^.$XW./.{..X.X.X{..X.X$X^.^.$X.X$X^.$X.X$X.X$X$X^.^.b.                                  ",
"                        /..X.X$X X.X$X^.$X^.4.E.|.|..X.X$X{.$X{.$X.X$X.X.X.X.X.X.X{..X.X$X{./.E.~./.E.x.' H                     ",
"                      <..X.X$X^.^.$X^.$X.X$X1.D.|.{..X|..X.X.X.X$X.X^.$X$X^..X.X.X.X{.{.$X.X.X.X.X.X.X.X^.^..X!.w.K             ",
"                    =.^.{.$X^. X|.|.|.{.^.$X4.D.|..X.X{.|.|.|.|.^..X^.^.^.^.^.'./.G.a.$X{.$X.X$X.X.X.X.X$X^..X.X^.^.^.D.K       ",
"                    /.$X$X$X^./.{.{.{.{.^.$X:.D.|.|..X.X|.|.'.'.P.p.u.u.u.y.y.y.y.,.,.$X.X.X.X{.{..X.X^.^..X^.^.$X^.$X^./.~.`   ",
"                  1.$X$X^.^.c.2.C.OX`.j.v.~.+.a.'.'..X.X'.|.'.s.y.y.t.t.r.&.@.T T 9.d.$X{.$X{..X$X$X!.D.b.4.c.S.E.E.W./..X.X~.4.",
"                  ^.^.^.U.v.OXz.Z l z g.@Xx.L ,.'.'..X'.oX'.p.y.y.r.I O.*.y.t.t.y.i.L.$X.X.X$X$X.X$Xr # $ $ $ $ $ & 7 ' U..X/.K ",
"                <.$X$XJ.m.M.m c i 2 2 2 Z C.[ &.p.L.oX'.d.y.y.y.r.*.t.r.T y.y.y.u.d.'..X.X.X.X{..X$XP = o o o o o o + $ = D./.  ",
"                ~..X/.T.B.m v g 2 ; U C.OXV.C.>.9.u.y.y.y.y.y.y.y.y.y.r.@.y.y.y.d./.{..X{..X.X$X.X$X^.q . o o o o o o o w U.]   ",
"              ] $X^.U.k.h.h c u > 1 } *X*XX.Z._ &.y.y.y.y.y.y.y.y.y.y.r.o.u.u.L..X.X.X{.$X{.$X{.$X{.%Xr + o o + o o o $ e.W.    ",
"              4..X^.&XM.m c c u > 1 ..*X*X..B.V.[ 9.y.y.y.y.y.y.y.y.t.*.r.u.(.'.{..X$X.X.X.X.X.X$X.X$X=.- X o o o o $ P W.K     ",
"              W.$X!.T.g.k n c u > ; W `.OXl { C.oX+.*.y.y.y.y.y.y.r.&.*.y.u.'.{.^.^.{.$X{..X{..X.X$X.X!.9 . + o o + t J.4.      ",
"              {..XW.R.g.x n c u ; > 2 1 2 > } C.oXoX,.o.9.y.y.y.&.Y r.u.r.+. .j.j. .x.{..X.X$X.X{..X{.%Xq . o o + w D.E.        ",
"            P $X^.!.W.M.W B c g 3 > > > > ; g.n.E.|.P.u.r.#.@.*.t.t.y.9.2.+X_.V.V._._.v.D.{.{.$X$X.X$X%Xr + o # w A.{.          ",
"            ` $X$X^.&XC.h.N n c g 5 > > 2 x Z.n.E.|.|.oXp.u.t.y.y.t.0.Z.Z.! g 2 < 4 z OXZ.A.$X.X{..X.X$XJ * + t D.{.]           ",
"            =.$X.X.XI.n.M.Q N b c c v c k z.Y.T.{.$X.X.X/.P.s.u.u.u.j.Z.x h 2 > i V.Y.j.l.T./..X.X$X.X$X' 6 J !.^.=.            ",
"            1..X.X.X/.R.+XM.^ 7.6.7.7.W z.@Xm.!.$X^.$X{..X.X.X^.~.4.OX! c f > < Z *X*Xj._ V.x..X.X{..X$XA.D.^.$X;.              ",
"            4.$X.X.X.XE.Z.+X@XV.| ..V.+X@Xv.U.{..X.X.X$X.X.X$X.X{.k._.j c u > 4 { *X*XB.~  .N..X$X.X{..X^..X.X;.                ",
"      H =.1.5.$X^..X.X.X/.m.V.@X@X@X@Xn.b.!..X$X$X.X.X$X{..X^.$X{.OXB.v c i > > x @X@X} 0 ! &X'..X{..X$X.X~.3.                  ",
"L W.^.^.^.U.>..X$X$X.X.X.X{.^.H.4.4.U./.^.$X^.^.^.$X.X{.^.$X^..XT.@X8.N b g > > < z ! 0 , ! &X^.{.$X.X.X^.                      ",
"b.^.{.$X.XJ.+.P.$X^.$X^.$X{.$X^./.^.{.{..X.X$X$X$X{..X$X$X.X$X^.W.@Xz.6.b h 3 > > , , : 0 { `..X.X.X.X.XJ.                      ",
"  ~..X{.$XE.+.d..X$X.X$X$X.X$X.X$X{.$X$X.X.X$X^.^.^..X^.$X.X$X.X{.OXOX6.N v g 3 > > > 3 W k.v..X{..X{.$Xq.                      ",
"  G d.f.p.t.@.p.L.^.$X^..X{..X{..X$X{.{.$X^.$XD.3.U.^.^.^.^.^.$X~.2.OX~ 6.b v h h f h k ^ Y.S.$X$X.X$X(.$.                      ",
"    p y.u.y.r.r.s.'.|..X.X.X.X$X.X{.{..X$X.X$X^.^.~.4.=.<.x.^.^.{.b.@X_.U 6.n c c c k Q Y.m.$X$X|.{..Xf.Y                       ",
"        *.r.9.@.y.d.'.|..X.X{..X.X$X$X.X{..X$X.X.X$X.X^.^.^..X.X.X!. .@XOX~ ) 7.6.W 8.@XY.E.$X^..X$XP.s.O.                      ",
"          D &.Y y.y.f..X.X.X$X$X.X.X.X.X$X{.^.$X$X^.$X.X$X^.$X$X{.$XW.3.@X@X+X+XOX+XOXm.U.$X$X^..X'.d.r.                        ",
"              a t.y.y.K.{..X{..X{.$X{.$X.X.X$X{..X.X{.{..X.X$X^.$X{.$XW.v.2.OX@X_.2.w. X^.$X.X.X{.K.y.%.                        ",
"                T y.y.u.K..X.X.X^..X{..X.X.X.X$X.X.X$X$X$X{.$X{.{.$X{..X^.{.$X^. X/.^..X.X$X.X.XP.u.u.@.                        ",
"                  t.y.y.y.f.'.{.$X.X$X.X^.$X$X^.{.$X{..X.X.X.X.X$X{..X$X.X$X{..X X X$X{.$X^.$XP.u.y.&.                          ",
"                  Y y.y.y.y.d.(..X.X^.$X.X.X^.$X{..X{.$X.X{..X.X{.{..X.X.X.X.X.X X$X^.$X{..XP.p.u.u.@.                          ",
"                    #.y.y.y.y.u.P.^..X$X{.$X{..X$X.X.X.X.X$X.X{..X$X$X{.{.$X{.$X^.$X$X^..XP.u.y.u.#.                            ",
"                      9.y.y.y.y.y.s.Q.'.|.|.|.|.|..X.X.X.X.X.X.X^..X.X.X.X.X.X.X.X$X.X/.K.y.y.t.r.&.                            ",
"                        r.y.y.y.y.y.y.d.'.'.'.|..X.X{..X.X.X.X.X$X.X.X.X.X.X^..X{.{.$XF.&.y.y.u.@.                              ",
"                          9.y.y.y.y.y.y.y.s.P.'.'.'..X.X|.|.|.|.$X^..X^./.L.f..X$X.X$XG.*.y.y.#.                                ",
"                          R &.y.y.y.y.y.y.y.y.y.s.f.Q.oX'.'.'.'.'./.P.p.y.#.p..X{..X{.L.t.y.#.                                  ",
"                        @.u.&.#.y.y.y.y.y.y.y.y.y.y.u.u.u.u.u.u.u.u.u.y.r.O.p.P.$X$XU.q.y.#.                                    ",
"                    1..XQ.d.y.t.y.y.y.y.y.y.y.u.y.y.y.y.y.y.y.y.y.y.y.y.y.r.&.d..X$XA.O.$.                                      ",
"                  U.{..X.X'.f.y.y.y.&.*.y.y.u.t.y.y.y.y.y.y.y.y.y.y.y.y.y.r.*.u.Q.{.e.a                                         ",
"              [ {..X.X.X.X.XL.y.y.y.y.O.O.9.u.u.y.y.y.y.y.y.u.y.y.y.y.y.y.y.r.#.0.F.G                                           ",
"            ] {.$X{.{..X$X$XP.y.y.t.u.O.    T 9.u.r.t.t.r.y.t.t.y.t.y.y.y.y.y.y.r.,.y.&.                                        ",
"            {..X.X.X.X.X.X{.L.t.y.&.F             p p F Y Y Y F s R t.y.y.y.y.y.u.p.d.K.q.                                      ",
"          H {..X$X.X$X{./.Q.i.o.                                  p t.y.y.y.y.f.'.{.{.{..XA.                                    ",
"            ;./.{.{.~.D.=.                                            r.t.y.f..X.X.X$X.X.X$Xb.                                  ",
"                                                                        @.i./.{..X.X.X.X.X.X{.H.                                ",
"                                                                          D J.^.{..X{.$X.X|.|.x.                                ",
"                                                                              H e.{.'.~.{..X{.e.                                ",
"                                                                                    H <.H.W.D.;.                                "
};
