/* XPM */
static char *dc8886edc51b4774ba2311e4cc34dc85oORre0vhCJBOzZxh[] = {
/* columns rows colors chars-per-pixel */
"68 64 199 2 ",
"   c None",
".  c #141515",
"X  c #151A1C",
"o  c #1C1B1B",
"O  c #161718",
"+  c #201F1F",
"@  c #151E21",
"#  c #162224",
"$  c #162529",
"%  c #16292E",
"&  c #1A262A",
"*  c #162D33",
"=  c #192D34",
"-  c #16343D",
";  c #183339",
":  c #252424",
">  c #2E2C2D",
",  c #252829",
"<  c #302D2D",
"1  c #353334",
"2  c #3F3E3D",
"3  c #36393C",
"4  c #25383E",
"5  c #443F3F",
"6  c #173741",
"7  c #153A44",
"8  c #163D4A",
"9  c #1A3E49",
"0  c #423F40",
"q  c #14404C",
"w  c #1A414E",
"e  c #144553",
"r  c #194756",
"t  c #144C5B",
"y  c #194A59",
"u  c #234F5E",
"i  c #284C59",
"p  c #3B4C53",
"a  c #2D515E",
"s  c #33525E",
"d  c #144F62",
"f  c #1A4F60",
"g  c #0E556C",
"h  c #0F5A6A",
"j  c #0F5766",
"k  c #125365",
"l  c #1C5163",
"z  c #11556B",
"x  c #11596C",
"c  c #1B586A",
"v  c #0E5C75",
"b  c #0E5E78",
"n  c #0C5770",
"m  c #115A71",
"M  c #205464",
"N  c #325662",
"B  c #0D6477",
"V  c #0C637C",
"C  c #0B697D",
"Z  c #1A6374",
"A  c #176C7D",
"S  c #186B7C",
"D  c #2C6C79",
"F  c #266A78",
"G  c #3B6B74",
"H  c #3C707A",
"J  c #4C4A4C",
"K  c #494445",
"L  c #504D4F",
"P  c #514D50",
"I  c #44545C",
"U  c #5C5556",
"Y  c #585758",
"T  c #605A5D",
"R  c #445961",
"E  c #4D5C63",
"W  c #525F65",
"Q  c #665F60",
"!  c #5C6469",
"~  c #576167",
"^  c #4E7177",
"/  c #44737B",
"(  c #4D757C",
")  c #5C7B7F",
"_  c #446870",
"`  c #696464",
"'  c #64696D",
"]  c #6C6B6D",
"[  c gray38",
"{  c #726D6C",
"}  c #6C6E71",
"|  c #676B72",
" . c #726F71",
".. c #6B777C",
"X. c #737173",
"o. c #7C7474",
"O. c #7E7779",
"+. c #867C7C",
"@. c #887D7D",
"#. c #827778",
"$. c #0B6681",
"%. c #0A6C83",
"&. c #086E89",
"*. c #076C84",
"=. c #116D80",
"-. c #06738C",
";. c #07768C",
":. c #047791",
">. c #037A94",
",. c #027E99",
"<. c #097994",
"1. c #1A7486",
"2. c #2C7887",
"3. c #307A89",
"4. c #4E7F89",
"5. c #537C84",
"6. c #5A7D83",
"7. c #877E83",
"8. c #00839E",
"9. c #1A889F",
"0. c #388696",
"q. c #0084A0",
"w. c #158AA2",
"e. c #309BB2",
"r. c #2895AD",
"t. c #3FA3B8",
"y. c #438E9E",
"u. c #4B818C",
"i. c #678084",
"p. c #7D8E90",
"a. c #7E8989",
"s. c #4697A7",
"d. c #4DA9BD",
"f. c #4AA4B7",
"g. c #8D8182",
"h. c #868887",
"j. c #928585",
"k. c #928A8D",
"l. c #9B8D8C",
"z. c #8C9695",
"x. c #879493",
"c. c #939594",
"v. c #9B9593",
"b. c #979B9A",
"n. c #A49494",
"m. c #AD9B9B",
"M. c #A99897",
"N. c #B19F9E",
"B. c #97A09D",
"V. c #A4A09C",
"C. c #B2A09F",
"Z. c #9EA4A0",
"A. c #A4A5A3",
"S. c #ABADAA",
"D. c #AAA9A4",
"F. c #B6A3A3",
"G. c #B9A7A6",
"H. c #B6A9A6",
"J. c #BBA9A9",
"K. c #B9A8A7",
"L. c #B5B2AC",
"P. c #B8B4AD",
"I. c #BCB5B1",
"U. c #BCBAB4",
"Y. c #BBBBB8",
"T. c #C0AEAD",
"R. c #C3B3B1",
"E. c #C4BDB6",
"W. c #CCBDB9",
"Q. c #C0BFBB",
"!. c #C5C1BA",
"~. c #CAC4BD",
"^. c #D1C2BE",
"/. c #CEC9C1",
"(. c #C7C5C0",
"). c #D3C6C1",
"_. c #D3CCC5",
"`. c #D8CCC6",
"'. c #DCCFC8",
"]. c #DDD2CB",
"[. c #D7D1C8",
"{. c #DFD9D0",
"}. c #DEDBD7",
"|. c #E0D5CE",
" X c #E1D9CF",
".X c #E4DBD2",
"XX c #E2D7D0",
"oX c #E9E1D6",
"OX c #ECE4DA",
"+X c #F1E9DE",
"@X c #F0E7DD",
"#X c #F7EFE4",
"$X c #F4ECE2",
"%X c #F8EFE4",
"&X c #F6F0E6",
"*X c #F8F0E6",
"=X c #F7F2EA",
"-X c #F8F2EB",
";X c #F3F3F3",
/* pixels */
"                                                                                                                                        ",
"                                                                                                                                        ",
"                                                                                                                                        ",
"                                                                                                                                        ",
"                                                                                                                                        ",
"                                                                                                                                        ",
"                                                                                                                                        ",
"                                                  # - %                                                                                 ",
"                                                  e V V t %                       # q 7                                                 ",
"                                                X f b V 8.C - @ # # # @ X     # e C 8.C $                                               ",
"                                                $ z b b C 8.1.D 0.0.0.2.Z t q C 8.8.8.%.=                                               ",
"                                                % m B C <.r.d.d.d.d.d.d.t.9.8.q.8.8.8.%.-                                               ",
"                                                % m &.,.w.y.f.d.d.d.d.d.d.e.8.8.8.8.>.V 6                                               ",
"                                                % $.8.%.) c.u.s.d.d.s.u.6.3.,.8.8.8.,.%.8                                               ",
"                                                6 >.S h. X=XU.u.y.u.p.Y.{.A.H -.8.8.8.8.t                                               ",
"                                              . h =.z.$X&X&X&XU.z.(.$X=X$X&X/.^ :.8.8.8.C #                                             ",
"                                              * C i.]./._.{.$X$X$X&X+X+X$X$X&X/.G ,.8.8.8.7                                             ",
"                                              q F !.{.!.U.!.oX$X$XOX!.L.I.~.oX$Xb.&.q.8.8.t                                             ",
"                                              e i.@X$X&X$X$X+X$X$X$XOX.X].[..X$X/.D 8.8.,.t                                             ",
"                                              8 B.%X$X$X[.L.$X*X&X}..X&X$X$X$X$XoX( ,.8.&.t O                                           ",
"                                              ; S.&X+X$XP.{ P.~.~.k.v.$X$X$X$X$X@X6.>.-.V t .                                           ",
"                                              , V.*X$X$X@X_.P.D.D.V.!.$X$X$X$X$X@X6.*.V b e                                             ",
"                                              . o.oX+X&X$X&X%X$X$X*X$X$X$X$X$X$X[.R v v m 6                                             ",
"                                              . 0 K.|.@X+X+X$X$X$X$X$X$X$XoX].).l.u b b m =                                             ",
"                                          @ 6 r y  .J.R.^.`.].|.{.].'.).~.R.J.C.~ g b b V C t #                                         ",
"                                      @ 7 k m b l } n.G.G.J.K.J.J.K.K.H.G.G.F.#.u b V &.,.q.8.C -                                       ",
"                                  . = d b b b M c..X'.W.T.J.J.K.H.K.K.K.G.K.M.Y x ;.>.8.8.8.8.q.>.e X                                   ",
"                                @ 8 m V b b l c.$X$X$X$XOX.X].`.^.^.^.^.^.`.].).^ >.8.8.8.8.8.8.8.8.k @                                 ",
"                              & t b b b z c x.OX$X$X$X$X$X$X$X$X$X+X$X$X$X$X$X*X!.D 8.8.8.8.8.8.8.8.8.h #                               ",
"                            % d b b b k k ..oX$X$X$X+X$X$X$X$X+X$X$X$X$X$X$X+X$X+Xb.C 8.8.8.8.8.8.8.8.8.h @                             ",
"                          % k b b b z t G _.$X$X$X$X$X$X$X$X$X$X$X$X$X+X$X+X$X$X&X X/ >.8.8.8.8.8.8.8.8.8.k X                           ",
"                        # d b b b m y c D.$X$X$X$X$X$X$X$X+X$X$X+X$X$X$X$X$X$X$X+X&XV.S ;.8.8.8.8.8.8.8.8.8.t                           ",
"                      X r b b b b k k ) oX$X+X$X$X$X$X$X$X$X$X$X%X+X$X$X$X$X$X$X+X$X X/ B 8.8.8.8.8.8.8.8.8.>.q                         ",
"                      6 v b b b m e Z L.%X$X$X$X$X$X$X$X$X$X$X$X$X$X$X$X$X$X$X$X$X$X&Xz.h C 8.8.8.8.8.8.8.8.q.%.%                       ",
"                    # k b b b b t x / XX$X$X$X$X@X$X@X$X$X$X$X$X$X$X=X=X-X-X=X=X&X+X$X~.F B >.8.8.8.8.8.8.8.8.8.j                       ",
"                    6 v b b b b e C x.$X$X$X+X$X$X$X$X$X$X$X$X$X*X*X=X=X-X-X-X-X=X&X&XoX) B B 8.8.8.8.8.8.8.8.8.>.;                     ",
"                    9 b b b b g k =.S.*X$X+X$X$X$X$X@X$X$X$X$X$X=X=X=X=X-X=X-X&X=X=X*X&Xz.*.c ;.8.8.8.8.8.8.8.8.8.k                     ",
"                  O 4 c v v b d B S !.*X$X$X$X$X$X$X$X$X$X$X$X&X=X=X=X=X-X=X=X=X=X=X=X*XP.S ;.k 8.8.8.8.8.8.8.8.8.v @                   ",
"                  o Y | E ~ k e ;.F ^.*X$X$X$X$X$X@X$X$X$X$X&X-X=X=X=X=X=X=X=X=X=X=X=X*X_.D 8.B f 8.8.8.8.8.8.8.;.v $                   ",
"                  . 0 J U J = - 8.F ~.&X+X$X$X$X$X$X$X$X$X$X-X-X=X=X=X=X-X=X=X=X=X=X=X=X XH 8.8.B t C ;.>.>.;.&.V z &                   ",
"                              ; >.S U.*X$X+X$X$X$X$X$X$X$X$X&X-X=X=X=X=X=X=X=X=X=X=X=X$X.X/ 8.8.q.m 9 z v c m z z i 1                   ",
"                              * %.%.V.%X$X$X$X$X@X$X$X$X$X$X&X-X=X=X=X=X=X=X=X=X=X=X&X$X.XH 8.8.q.&.m 9 p b.R } I Y 1                   ",
"                              # x C 6.+X*X+X$X+X$X$X$X$X$X$X$X-X=X=X=X=X=X=X=X=X=X&X$X$X[.D 8.8.<.$.v k , 6.K 7.P K o                   ",
"                              O t B N ~.+X&X$X$X$X$X$X$X$X@X$X$X=X=X=X=X=X=X=X&X$X$X$X*XI.A ,.&.b v v c + :   1 + .                     ",
"                                - m z ' ^..X+X%X$X$X$X$X$X$X$X$X$X$X$X&X$X$X$X$X$X$X$X+Xa.B V b b b b d X                               ",
"                                @ t V u @.T.W.`..XOX$X$X$X$X$X$X+X&X&X$X$X$X$X+XOX.X'.H.N v b b b v b r                                 ",
"                                  = g v a g.F.J.J.R.W.).`.'.|.XX.X.X X{.].`.).W.R.J.F.~ g b b b b b m ;                                 ",
"                                    - g v i o.C.G.G.G.G.G.J.J.J.J.J.J.J.K.K.G.G.J.F.] l b b b b b b e O                                 ",
"                                    < I d n k E 7.N.J.J.K.K.K.K.G.G.G.G.G.J.J.G.l.~ d v b b m V b d @                                   ",
"                                  > 7.m.] u g g M I  .j.M.C.G.K.J.J.J.G.G.m.j.' a z b b b b V n r @                                     ",
"                                  T J.J.G.l.' a k g z l N R ! ' } X.} ' E s u g b b b b v g f R #.J                                     ",
"                                1 Q 7.l.K.J.F.n.O.W N f d g z z z g g g v b v b v n g f s ~ g.m.J.M.0                                   ",
"                              > j.k.` O.j.#.#.F.T.G.m.j. .3 = ; - 7 8 8 8 9 s I E ' h.m.E.].].`.W.R.o.                                  ",
"                              , J P k.k.J j.7.{ 7.+.o.` K +               + +.F.R.).OX&XOX].@XOXP.R.7.                                  ",
"                                  o 1 > , { P : + +                         U P.V.c.L.OXV.c.D.L.V.c.0                                   ",
"                                          O                                 o Y b.}.k.L.V.;XB.` A.S.<                                   ",
"                                                                                Y O.2 2 J c.[ o , 1                                     ",
"                                                                                                                                        ",
"                                                                                                                                        ",
"                                                                                                                                        ",
"                                                                                                                                        ",
"                                                                                                                                        ",
"                                                                                                                                        ",
"                                                                                                                                        "
};
