/* XPM */
static char *_1a45047d2e542748fd41821d34e1e41ILP1loaTtIHo56ng[] = {
/* columns rows colors chars-per-pixel */
"64 64 141 2 ",
"   c None",
".  c #0A0302",
"X  c #250D04",
"o  c #2F1106",
"O  c #2F1206",
"+  c #28180D",
"@  c #2B190E",
"#  c #341507",
"$  c #361608",
"%  c #371609",
"&  c #381709",
"*  c #3A1708",
"=  c #3B1708",
"-  c #3B1808",
";  c #39180A",
":  c #3A180A",
">  c #3C1808",
",  c #3C1909",
"<  c #3D1909",
"1  c #3D1A09",
"2  c #3E1A09",
"3  c #3E1A0A",
"4  c #3F1A0A",
"5  c #3F1B0A",
"6  c #3F1B0B",
"7  c #342215",
"8  c #352417",
"9  c #3B271B",
"0  c #3C281B",
"q  c #3D281B",
"w  c #3C281C",
"e  c #3D281C",
"r  c #3E281C",
"t  c #401B0A",
"y  c #401B0B",
"u  c #431D0C",
"i  c #441E0D",
"p  c #4F2312",
"a  c #5F2C16",
"s  c #612D17",
"d  c #68321A",
"f  c #6A321A",
"g  c #6C341B",
"h  c #6D341B",
"j  c #6E351B",
"k  c #6D341C",
"l  c #70361B",
"z  c #70361C",
"x  c #71361C",
"c  c #71361D",
"v  c #71371D",
"b  c #72371D",
"n  c #73371D",
"m  c #72381D",
"M  c #73381D",
"N  c #73381E",
"B  c #74381D",
"V  c #74391D",
"C  c #74381E",
"Z  c #74391E",
"A  c #75391E",
"S  c #76391E",
"D  c #773A1F",
"F  c #793B1F",
"G  c #7A3B1F",
"H  c #7B3B1F",
"J  c #443023",
"K  c #453123",
"L  c #7B3C20",
"P  c #813F21",
"I  c #844123",
"U  c #864223",
"Y  c #844124",
"T  c #844224",
"R  c #854224",
"E  c #874325",
"W  c #884324",
"Q  c #884325",
"!  c #894425",
"~  c #8A4425",
"^  c #894426",
"/  c #8A4426",
"(  c #8B4426",
")  c #8B4526",
"_  c #8E4627",
"`  c #8F4627",
"'  c #8F4727",
"]  c #904728",
"[  c #914828",
"{  c #944A29",
"}  c #944A2A",
"|  c #974C2A",
" . c #974C2B",
".. c #984C2A",
"X. c #984D2A",
"o. c #984C2B",
"O. c #984D2B",
"+. c #9B4E2A",
"@. c #9B4E2B",
"#. c #9A4E2C",
"$. c #9B4E2C",
"%. c #9D4F2D",
"&. c #9F502D",
"*. c #9F512D",
"=. c #9F512E",
"-. c #A1522E",
";. c #A2522E",
":. c #A3522E",
">. c #A3532E",
",. c #A2532F",
"<. c #A3532F",
"1. c #A4532F",
"2. c #A3542F",
"3. c #A5542F",
"4. c #A6552F",
"5. c #A55430",
"6. c #A45530",
"7. c #A75530",
"8. c #A85630",
"9. c #A85631",
"0. c #A95731",
"q. c #AD5932",
"w. c #AC5933",
"e. c #AD5933",
"r. c #AE5933",
"t. c #AE5A33",
"y. c #AF5A33",
"u. c #B05B34",
"i. c #B15B34",
"p. c #B05B35",
"a. c #B15C35",
"s. c #B35C35",
"d. c #B35D35",
"f. c #B45D36",
"g. c #B55E36",
"h. c #B76038",
"j. c #B86038",
"k. c #BA6139",
"l. c #BD633A",
"z. c #BE633A",
"x. c #C1653B",
/* pixels */
"  z.x.x.x.x.x.x.x.x.x.x.x.x.x.x.l.x.x.z.l.x.x.x.x.x.x.x.l.s.        l.x.x.x.x.x.x.x.x.x.x.x.x.x.x.x.x.x.x.x.x.x.x.x.x.x.x.x.s.  ",
"7.e.s.s.s.s.s.s.s.s.s.s.s.s.s.s.d.h.d.h.d.h.d.h.d.d.d.d.s.2.' J J 4.e.s.d.d.i.d.a.a.f.a.s.s.s.f.s.s.f.s.f.a.s.s.s.s.s.s.s.s.2.U ",
"+.>.0.0.0.0.0.0.0.0.0.0.0.0.0.0.0.0.0.0.4.8.8.0.0.0.8.8.0.$.E 0 e +.>.0.0.0.0.0.0.0.0.0.0.0.0.0.0.0.0.0.0.0.0.0.0.0.0.0.0.0.+.F ",
"+.2.0.0.0.0.0.0.0.0.0.0.0.0.0.0.0.0.0.0.8.8.0.0.0.0.0.8.0.$.E 0 0 &.&.0.0.0.0.0.0.0.0.0.0.0.0.0.0.0.0.0.0.0.0.0.0.0.0.0.0.0.| F ",
"$.>.0.0.0.0.0.0.0.0.0.0.0.0.0.0.0.0.0.0.0.0.0.0.0.0.0.0.0.*.E 0 9 +.>.0.0.0.0.0.0.0.0.0.0.0.0.0.0.0.0.0.0.0.0.0.0.0.0.0.0.0.| F ",
"+.>.0.0.0.0.0.0.0.0.0.0.0.0.0.0.0.0.0.0.0.0.0.0.0.0.0.0.9.+.E 0 9 +.>.0.0.0.0.0.0.0.0.0.0.0.0.0.0.0.0.0.0.0.0.0.0.0.0.0.0.0.| F ",
"$.>.0.0.0.0.0.0.0.0.0.0.0.0.0.0.0.0.0.0.0.0.0.0.0.0.0.0.0.+.E 0 9 +.>.0.0.0.0.0.0.0.0.0.0.0.0.0.0.0.0.0.0.0.0.0.0.0.0.0.0.0...F ",
"+.>.0.0.0.0.0.0.0.0.0.0.0.0.0.0.0.0.0.0.0.0.0.0.0.0.0.0.0.&.E 0 9 +.>.0.0.0.0.0.0.0.0.0.0.0.0.0.0.0.0.0.0.0.0.0.0.0.0.0.0.0...F ",
"+.2.0.0.0.0.0.0.0.0.0.0.0.0.0.0.0.0.0.0.0.0.0.0.0.0.9.9.9.+.E 0 0 +.>.0.0.0.0.0.0.0.0.0.0.0.0.0.0.0.0.0.0.0.0.0.0.0.0.0.0.0...F ",
"+.2.0.0.0.0.0.0.0.0.0.0.0.0.0.0.0.0.0.0.0.0.0.0.0.0.0.9.9.&.E 0 0 +.>.0.0.0.0.0.0.0.0.0.0.0.0.0.0.0.0.0.0.0.0.0.0.0.0.0.0.0...H ",
"+.2.0.0.0.0.0.0.0.0.0.0.0.0.0.0.0.0.0.0.0.0.0.0.0.0.9.9.9.&.) 0 9 +.>.7.0.0.0.0.0.0.0.0.0.0.0.0.0.0.0.0.0.0.0.0.0.0.0.0.0.0...F ",
"+.2.0.0.0.0.0.0.0.0.0.0.0.0.0.0.0.0.0.0.0.0.0.0.0.0.9.9.9.&.E 0 9 +.>.0.0.0.0.0.0.0.0.0.0.0.0.0.0.0.0.0.0.0.0.0.0.0.0.0.0.0...F ",
"+.>.0.0.0.0.0.0.0.0.0.0.0.0.0.0.0.0.0.0.0.0.0.0.0.0.0.0.9.&.E 0 0 +.>.7.0.0.0.0.0.0.0.0.0.0.0.0.0.0.0.0.0.0.0.0.0.0.0.0.0.0...F ",
"+.>.0.0.0.0.0.0.0.0.0.0.0.0.0.0.0.0.0.0.0.0.0.0.0.0.0.0.9.+.E w 0 +.>.0.0.0.0.0.0.0.0.0.0.0.0.0.0.0.0.0.0.0.0.0.0.0.0.0.0.0...H ",
"+.>.0.0.0.0.0.0.0.0.0.0.0.0.0.0.0.0.0.0.0.0.0.0.0.0.0.0.9.&.) 0 0 +.>.0.0.0.0.0.0.0.0.0.0.0.0.0.0.0.0.0.0.0.0.0.0.0.0.0.0.0...F ",
"+.>.0.0.0.0.0.0.0.0.0.0.0.0.0.0.0.0.0.0.0.0.0.0.0.0.0.0.9.$.) 0 0 +.>.0.0.0.0.0.0.0.0.0.0.0.0.0.0.0.0.0.0.0.0.0.0.0.0.0.0.0...H ",
"$.>.0.0.0.0.0.0.0.0.0.0.0.0.0.0.0.0.0.0.0.0.0.0.0.0.0.0.0.&.) 0 0 +.2.0.0.0.0.0.0.0.0.0.0.0.0.0.0.0.0.0.0.0.0.0.0.0.0.0.0.0.+.F ",
"+.>.0.0.0.0.0.0.0.0.0.0.0.0.0.0.0.0.0.0.0.0.0.0.0.0.0.0.4.&.) 0 0 +.2.8.0.0.0.0.0.0.0.0.0.0.0.0.0.0.0.0.0.0.0.0.0.0.0.0.0.0.+.F ",
"l z z z C z N z N x N N N x N x N x N x x x N x N x N N N l g 0 0 g x N N x N x C N C C C C C C C C C C C C C C D C D C C C g s ",
"  , - * * * * - * * * - * * * > * > * > 1 1 * 1 , , , , * i 0 0 0 0 5 1 1 5 > 5 , 5 , t , t , , t t , t 5 5 t t 5 t 5 t u 5 u   ",
"  7 0 0 e 0 0 0 0 0 0 0 0 0 0 0 0 0 0 0 0 0 0 0 0 0 0 0 0 0 0 0 0 0 0 0 0 0 0 0 0 0 0 0 0 0 0 0 0 0 0 0 0 0 0 0 0 0 0 0 0 0 +   ",
"  8 0 e e 0 0 0 0 0 0 0 0 0 0 0 0 0 0 0 0 0 0 0 0 e 0 0 0 0 0 e 0 0 0 0 0 0 0 0 0 0 0 0 0 e 0 0 0 0 0 0 0 0 0 0 0 0 0 e 0 0 @   ",
"  l.x.x.x.x.x.x.x.x.x.l.x.s.e 0 0 0 h.x.x.x.x.x.l.x.x.x.x.x.x.x.x.x.x.x.x.x.x.x.x.x.x.x.x.w.0 0 0 e k.x.x.x.x.x.x.x.x.x.x.x.s.  ",
"0.e.f.f.f.f.f.s.f.f.f.h.s.9.{ 0 0 4.e.f.s.s.d.h.h.s.s.s.h.s.f.s.f.f.f.f.f.f.f.f.f.f.f.f.s.>.) 0 0 7.e.f.f.f.f.f.f.s.f.f.s.s.>.) ",
"+.>.0.0.0.0.0.0.0.0.0.0.0.&.] 0 0 X.-.8.0.0.0.0.0.0.0.0.0.0.0.0.8.0.0.0.0.0.0.0.0.0.0.0.0.| I 9 0 +.>.0.0.0.0.0.0.0.0.0.0.0.+.L ",
"+.2.0.0.0.0.0.0.0.0.0.0.0.&.] 0 0 &.2.8.0.0.0.0.0.0.0.0.0.0.0.0.0.0.0.0.0.0.0.0.0.0.0.0.0.| U 0 0 +.>.0.0.0.0.0.0.0.0.0.0.0.| F ",
"+.>.0.0.0.0.0.0.0.0.0.0.0.&.] 0 0 +.>.8.0.0.0.0.0.0.0.0.0.0.0.0.0.0.0.0.0.0.0.0.0.0.0.0.0. .Y 0 0 +.1.0.0.0.0.0.0.0.0.0.0.0.| F ",
"+.>.0.0.0.0.0.0.0.0.0.0.0.&.] 0 0 +.2.8.0.0.0.0.0.0.0.0.0.0.0.0.0.0.0.0.0.0.0.0.0.0.0.0.0. .I 9 0 +.1.0.0.0.0.0.0.0.0.0.0.0.+.F ",
"+.>.0.0.0.0.0.0.0.0.0.0.0.&.] 0 0 +.&.0.0.0.0.0.0.0.0.0.0.0.0.0.0.0.0.0.0.0.0.0.0.0.0.0.0.| U 0 0 +.>.0.0.0.0.0.0.0.0.0.0.0.| F ",
"+.>.0.0.0.0.0.0.0.0.0.0.0.&.] 0 0 +.>.0.0.0.0.0.0.0.0.0.0.0.0.0.0.0.0.0.0.0.0.0.0.0.0.0.0.$.P 0 0 +.>.0.0.0.0.0.0.0.0.0.0.0...F ",
"+.>.0.0.0.0.0.0.0.0.0.0.0.&.[ 0 0 +.>.0.0.0.0.0.0.0.0.0.0.0.0.0.0.0.0.0.0.0.0.0.0.0.0.0.0.$.Y 0 0 +.>.0.0.0.0.0.0.0.0.0.0.0...F ",
"+.>.0.0.0.0.0.0.0.0.0.0.0.&.[ e 0 +.&.0.0.0.0.0.0.0.0.0.0.0.0.0.0.0.0.0.0.0.0.0.0.0.0.0.0.| Y 0 0 +.>.0.0.0.0.0.0.0.0.0.0.0...F ",
"&.2.0.0.0.0.0.0.0.0.0.0.0.*.[ 0 0 +.2.0.0.0.0.0.0.0.0.0.0.0.0.0.0.0.0.0.0.0.0.0.0.0.0.0.0.X.T 0 0 | 2.4.0.0.0.0.0.0.0.0.0.0.+.F ",
"X.2.0.0.0.0.0.0.0.0.0.0.0.*.[ 0 0 +.>.0.0.0.0.0.0.0.0.0.0.0.0.0.0.0.0.0.0.0.0.0.0.0.0.0.0.X.E 0 0 &.2.0.0.0.0.0.0.0.0.0.0.0.+.F ",
"+.2.0.0.0.0.0.0.0.0.0.0.0.*.[ 0 0 +.*.0.0.0.0.0.0.0.0.0.0.0.0.0.0.0.0.0.0.0.0.0.0.0.0.0.0.O.E 0 0 X.2.8.0.0.0.0.0.0.0.0.0.0.| F ",
"+.>.0.0.0.0.0.0.0.0.0.0.0.*.[ w 0 +.2.0.0.0.0.0.0.0.0.0.0.0.0.0.0.0.0.0.0.0.0.0.0.0.0.0.0.O.T 0 0 &.2.8.0.0.0.0.0.0.0.0.0.0.+.F ",
"+.>.4.0.0.0.0.0.0.0.0.0.0.*.[ w 0 +.>.7.0.0.0.0.0.0.0.0.0.0.0.0.0.0.0.0.0.0.0.0.0.0.0.0.4.| T 0 0 X.>.8.8.8.0.0.0.0.0.0.0.0.| F ",
"+.2.0.0.0.0.0.0.0.0.0.0.0.*.[ w 0 +.>.0.0.0.0.0.0.0.0.0.0.0.0.0.0.0.0.0.0.0.0.0.0.0.0.0.0.&.T 0 0 *.4.8.8.e.0.0.0.0.0.0.0.0...F ",
"+.2.0.0.0.0.0.0.0.0.0.0.0.*.' 0 0 +.&.0.0.0.0.0.0.0.0.0.0.0.0.9.0.0.0.0.0.0.0.0.0.0.0.0.0.X.T 0 0 +.>.8.8.0.0.0.0.0.0.0.0.0...F ",
"+.2.0.0.0.0.0.0.0.0.0.0.0.*.[ 0 0 +.2.0.0.0.0.0.0.0.0.0.0.0.0.9.0.0.0.0.0.0.0.0.0.0.0.0.0.X.T 0 0 X.>.8.0.0.0.0.0.0.0.0.0.0...H ",
"z N z z z N z N x x x x x N v 0 0 N z N j N N j N v v v v v v v N x N x x x x x N l N v x g d 0 0 N N j N z N l z z z z z z f a ",
"  # O # O O O O O O O O O - 0 0 0 0 $ O O O O O O O O O O O O O O O O O O O O O O O O O O * 0 0 0 0 $ O O O O # O # O O # O $   ",
"  7 0 0 0 0 0 0 0 0 0 0 0 0 0 0 0 0 0 0 0 0 w 0 0 0 0 0 0 0 0 0 0 0 0 0 0 0 0 0 0 0 0 0 0 0 0 0 0 0 0 0 0 0 0 0 0 0 0 0 0 0 +   ",
"  8 0 0 0 0 0 0 0 0 0 0 0 0 0 0 0 0 0 0 0 0 0 0 0 0 0 w 0 0 0 0 0 0 0 0 0 0 0 0 0 0 0 0 0 0 0 0 0 0 0 0 0 0 0 0 0 0 0 0 0 0 @   ",
"  l.x.x.x.x.x.x.x.x.x.x.x.x.x.x.x.x.x.x.x.x.x.x.x.x.x.x.x.y.w 0 0 0 h.x.x.x.x.x.z.x.l.x.x.x.x.x.l.x.x.x.x.x.x.x.x.x.x.x.x.x.f.  ",
"0.d.f.f.f.f.h.f.h.h.s.h.h.s.h.h.h.f.f.h.f.h.f.f.s.h.h.s.h.0.[ 0 0 2.e.h.s.h.h.h.h.h.h.h.d.h.h.h.f.h.f.f.h.f.f.f.f.f.f.f.f.f.4.) ",
"+.2.0.0.0.0.0.0.0.0.0.0.8.8.0.0.8.8.0.0.0.0.0.0.0.0.0.9.0.&.' 0 0 +.>.0.8.0.0.0.4.0.0.0.8.8.0.0.0.0.0.0.0.0.0.0.0.0.0.0.0.0.| F ",
"+.>.0.0.0.0.0.0.0.0.0.8.8.8.0.0.8.8.0.0.0.0.0.0.0.0.0.9.7.&.' 0 0 &.&.8.8.8.0.0.8.0.0.0.8.8.0.0.0.0.0.0.0.0.0.0.0.0.0.0.0.0.+.H ",
"+.>.0.0.0.0.0.0.0.0.0.0.0.0.0.0.0.0.0.0.0.0.0.0.0.0.0.0.9.&.) w 0 X.2.9.0.0.0.0.0.0.0.0.0.0.0.0.0.0.0.0.0.0.0.0.0.0.0.0.0.0.+.F ",
"+.>.0.0.0.0.0.0.0.0.0.0.0.0.0.0.0.0.0.0.0.0.0.0.0.0.0.0.9.&.) w 0 &.2.9.0.0.0.0.0.0.0.0.0.0.0.0.0.0.0.0.0.0.0.0.0.0.0.0.0.0.+.F ",
"+.>.0.0.0.0.0.0.0.0.0.0.0.0.0.0.0.0.0.0.0.0.0.0.0.0.0.0.9.&.) 0 0 X.2.9.0.0.0.0.0.0.0.0.0.0.0.0.0.0.0.0.0.0.0.0.0.0.0.0.0.0.+.F ",
"$.>.0.0.0.0.0.0.0.0.0.0.0.0.0.0.0.0.0.0.0.0.0.0.0.0.0.0.9.&.] 0 0 X.2.0.0.0.0.0.0.0.0.0.0.0.0.0.0.0.0.0.0.0.0.0.0.0.0.0.0.0...F ",
"+.>.0.0.0.0.0.0.0.0.0.0.0.0.0.0.0.0.0.0.0.0.0.0.0.0.0.0.0.&.` w 0 *.>.8.0.0.0.0.0.0.0.0.0.0.0.0.0.0.0.0.0.0.0.0.0.0.0.0.0.0...F ",
"+.>.0.0.0.0.0.0.0.0.0.0.0.0.0.0.0.0.0.0.0.0.0.0.0.0.0.0.7.&.` w 0 X.>.8.0.0.0.0.0.0.0.0.0.0.0.0.0.0.0.0.0.0.0.0.0.0.0.0.0.0...H ",
"+.>.0.0.0.0.0.0.0.0.0.0.0.0.0.0.0.0.0.0.0.0.0.0.0.0.0.0.9.&.) w 0 +.>.8.0.0.0.0.0.0.0.0.0.0.0.0.0.0.0.0.0.0.0.0.0.0.0.0.0.0...H ",
"+.>.0.0.0.0.0.0.0.0.0.0.0.0.0.0.0.0.0.0.0.0.0.0.0.0.0.0.0.&.` w 0 X.2.8.0.0.0.0.0.0.0.0.0.0.0.0.0.0.0.0.0.0.0.0.0.0.0.0.0.0...H ",
"+.2.0.0.0.0.0.0.0.0.0.0.0.0.0.0.0.0.0.0.0.0.0.0.0.0.0.0.0.%._ 0 0 +.-.8.8.8.8.0.0.0.0.0.0.0.0.0.0.0.0.0.0.0.0.0.0.0.0.0.0.0...H ",
"+.2.0.0.0.0.0.0.0.0.0.0.0.0.0.0.0.0.0.0.0.0.0.0.0.0.0.0.0.%.` 0 0 +.-.q.q.8.0.0.0.0.0.0.0.0.0.0.0.0.0.0.0.0.0.0.0.0.0.0.0.0.+.H ",
"+.2.0.0.0.0.0.0.0.0.0.0.0.0.0.0.0.0.0.0.0.0.0.0.0.0.0.0.0.%._ 0 0 X.-.8.0.0.0.0.0.0.0.0.0.0.0.0.0.0.0.0.0.0.0.0.0.0.0.0.0.0...F ",
"+.>.0.0.0.0.0.0.0.0.0.0.0.0.0.0.0.0.0.0.0.0.0.0.0.0.0.0.0.%._ 0 0 *.-.8.0.0.0.0.0.0.0.0.0.0.0.0.0.0.0.0.0.0.0.0.0.0.0.0.0.0.+.H ",
"+.>.0.0.0.0.0.0.0.0.0.0.0.0.0.0.0.0.0.0.0.0.0.0.0.0.0.0.0.%.` e 0 +.4.0.0.0.0.0.9.9.9.0.0.0.0.0.0.0.0.0.0.0.0.0.0.0.0.0.0.0.| F ",
"$.>.0.0.0.9.0.0.0.0.0.7.0.0.0.0.0.7.0.0.0.0.0.7.0.0.0.0.0.&.` 9 9 +.>.0.0.0.0.0.9.9.9.9.0.0.0.7.0.0.0.0.0.7.0.0.0.0.0.0.0.0...H ",
"I L C L L N C L L C C L L C C L L N N L L C C L L C F C C z g . . C C C F C F F Z L L N L L L N C L L C C L L C C L C L F C f p ",
"  , O O O O O O O O O O O O O O O O O O O O O O O O O # # #         # O # O O O O o o o o o O O O O O O O O O O O O O O O O X   "
};
